<?xml version="1.0" encoding="utf-8"?>
<!-- Generator: Adobe Illustrator 19.1.0, SVG Export Plug-In . SVG Version: 6.00 Build 0)  -->
<svg version="1.1" id="Layer_1" xmlns="http://www.w3.org/2000/svg" xmlns:xlink="http://www.w3.org/1999/xlink" x="0px" y="0px"
	 viewBox="0 0 3041.6 667.2" style="enable-background:new 0 0 3041.6 667.2;" xml:space="preserve">
<style type="text/css">
	.st0{fill:#FFFFFF;}
</style>
<g>
	<path class="st0" d="M279.1,298.6c14.2,7.3,26.6,26.2,37.2,45l47.3,83.2l30.4,10.1v12.4h-66.1l-83.6-147.4H190V427l29.9,9.9v12.4
		H115.6v-12.4l29.9-9.9V149.9l-29.9-9.8v-12.4h136.9c64.3,0,109.3,33.1,109.3,87.3C361.8,261,329.2,291.7,279.1,298.6z M190,144.3
		v141h56c40,0,68.4-24.3,68.4-70.3c0-46.4-28.5-70.7-68.4-70.7H190z"/>
	<path class="st0" d="M436.6,337.5c0.5,68,28.9,92.7,76.7,92.7c23.4,0,47.8-6.4,62-20.5l10.6,10.5c-18.8,19.2-50.1,29.7-84.1,29.7
		c-67.5,0-109.3-42.5-109.3-107.3c0-67.6,45.5-106.4,105.2-106.4c56.5,0,92.3,35.2,92.3,79.5c0,15.6-3.5,21.9-3.5,21.9H436.6z
		 M437.1,322.5l115.3-3.7c0-39.3-19-66.7-57.1-66.7C457.8,252.2,440.3,284.6,437.1,322.5z"/>
	<path class="st0" d="M911.2,428.2l25.7,8.7v12.4h-96.5V436l27.6-9.2V265.4l-24.3-8V245l61.1-9.7l6.4,6.4v22.9
		c21.1-19.3,58.8-29.3,83.1-29.3c45,0,66.1,33.9,66.1,75.7v116.7l27.6,9.1v12.4h-96.5V436l26.2-8.6V314.3
		c0-36.7-16.5-58.3-43.6-58.3c-16.5,0-45.5,7.8-62.9,25.7V428.2z"/>
	<path class="st0" d="M1111.8,391.1h11.9c8.7,31.4,34,42.4,58.8,42.4c28,0,50.5-11.8,50.5-38.7c0-22.3-17-27.8-51.4-36.4
		c-34-9.1-70.3-17.3-70.3-62.4c0-34.6,21.6-59.7,76.3-59.7c22.5,0,41.3,5,57.9,14.1l7.4-7.7l5.5,5.5v47.4H1246
		c-5.6-35.5-33.2-42.8-52.9-42.8c-26.6,0-44.6,14.6-44.6,36.4c0,21.4,17,26.4,45.5,34.2c36.3,10.5,76.2,20.5,76.2,66.5
		c0,35.5-24.3,59.7-85.9,59.7c-22.1,0-41.3-3.6-59.3-12.3l-7.8,7.7l-5.5-5.5V391.1z"/>
	<path class="st0" d="M1727,551.7l27.6-9.2V264.9l-24.3-8.1v-12.3l61.1-9.7l6.4,6.4l-1.4,19.7l1.4,1.4
		c16.5-17.5,46.9-26.2,72.1-26.2c56.5,0,86.4,44.1,86.4,105.2c0,70.3-40.4,107.9-105.7,107.9c-21.1,0-40.4-4.6-52.8-12.4v100.9
		l41.8,14v12.4H1727V551.7z M1797.8,417c11.9,9.6,31.7,14.7,48.2,14.7c40,0,66.1-27.4,66.1-88c0-56.5-22.5-87.7-61.1-87.7
		c-16.5,0-40,6-53.3,22.5V417z"/>
	<polygon class="st0" points="1352.1,399.1 1352.1,369.8 1352.1,345.5 1352.1,290.4 1352.1,108 1345.7,101.6 1281.4,111.2 
		1281.4,123.7 1308.9,132.8 1308.9,426.9 1281.4,436 1281.4,449.3 1379.7,449.3 1379.7,436.9 1352.1,428.2 	"/>
	<polygon class="st0" points="1483.5,428.5 1413.2,310.3 1469.7,257.5 1496.4,248.7 1496.4,236.2 1409.1,236.2 1409.1,248.7 
		1442.9,259.8 1374,324.2 1395.8,359.3 1395.8,359.3 1450.9,449.3 1511.5,449.3 1511.5,436.8 	"/>
	<path class="st0" d="M2410.2,236.2c63.4,0,107.5,40.5,107.5,106.6s-44.1,106.6-107.5,106.6s-107-40.5-107-106.6
		S2346.8,236.2,2410.2,236.2z M2410.2,432.9c37.2,0,63.4-31.4,63.4-90.2c0-58.8-26.2-90.6-63.4-90.6c-36.7,0-62.9,31.9-62.9,90.6
		C2347.3,401.5,2373.4,432.9,2410.2,432.9z"/>
	<path class="st0" d="M2551.3,267.1l-24.3-7.9v-14.7l61.1-9.7l4.9,7.2v41.5l1.5-2.3c0,0,24.3-45,62.9-45c25.3,0,44.6,18.4,44.6,43.2
		c0,17-10.1,23-19.3,23c-11,0-19.7-8.7-19.7-19.8V263c-3.2-2.8-7.4-4.6-13.3-4.6c-31.7,0-55.1,64.2-55.1,64.2v100.7l41.8,13.6v12.4
		h-112.5v-12.4l27.6-9V267.1z"/>
	<path class="st0" d="M2940,430.1v12.4l-61.1,6.9l-6.4-7.1l0-18.2c-16.5,17.4-46.9,26.1-72.1,26.1c-56.5,0-86.4-43.5-86.4-104.4
		c0-70.5,40.4-109.9,106.1-109.9c20.7,0,40,4.1,52.8,12.8V132.7l-27.6-9.1v-12.4l64.3-9.6l6,6.4v314.1L2940,430.1z M2873,270.2
		c-12.5-11.6-31.7-18.4-48.2-18.4c-40.4,0-66.6,31.1-66.6,91.2c0,56.3,22.5,87.5,61.1,87.5c17,0,40-9.9,53.7-26.4V270.2z"/>
	<polygon class="st0" points="2203,123.3 2203,136.2 2248,151 2248,379.3 2074.1,123.3 2000,123.3 2000,138.1 2033,148.4 
		2033,426.4 2000,436.4 2000,449.3 2008.4,449.3 2095,449.3 2098,449.3 2098,436.4 2054,421.5 2054,170.5 2244.3,449.3 2272,449.3 
		2272,150.4 2301,140.4 2301,123.3 	"/>
	<path class="st0" d="M823.1,257.4v-12.8l-96-8.3c-6.4-0.9-12.9-1.4-19.7-1.4c-54.2,0-91.9,27.7-91.9,72.5
		c0,23.1,10.1,41.6,27.6,53.6c-17.5,18.9-26.6,33.2-26.6,53.6c0,18.5,7.2,30.9,20.8,38.2c1.1,0.6,2.5,1.3,3.9,1.9
		c10.1,4.5,21.8,5.2,22.3,5.3c4,0.4,8,0.7,12.7,0.7H705h44.6c29.9,0,40.9,16.6,40.9,36c0,34.2-12.5,53.7-86.4,53.7
		c-1.1,0-2.2,0-3.4-0.1h-55.8c0,0,0.1,0,0.1,0.1h-2.5v15.2h56.9h2.7c110.3,0,121-29.8,121-81.8c0-40.2-23-64.7-78.1-64.7h-64.8
		c-23,0-34.4-7.9-34.4-24c0-8.8,3.7-18.5,9.6-26.8c14.2,6.9,31.7,10.2,51.9,10.2c54.7,0,92.3-27.2,92.3-71.1
		c0-20.3-8.3-37.4-22-49.9H796L823.1,257.4z M707.3,363.3c-28.9,0-49.2-19.4-49.2-56.3s20.2-57.3,49.2-57.3
		c28.9,0,49.6,20.8,49.6,57.3C756.9,343.4,736.2,363.3,707.3,363.3z"/>
	<path class="st0" d="M1724.9,422.4c-3.1,1.9-7.4,5.1-12.2,6.2c-7.2,1.6-8.7-2.1-8.7-8.9V292.1c0-32.7-31.4-55.9-82.4-55.9
		c-48.2,0-85.1,20.4-85.1,49.5c0,14.5,10.3,20.9,20,20.9c10.6,0,19.5-8.6,19.5-19.1v-22.7c12-7.7,26.4-12.7,40.6-12.7
		c27.1,0,43.4,15.9,43.4,38.2v35.7l-49.7,13.5c-58.6,14.4-80.5,26.3-80.5,61.2c0,30,15.7,48.6,52.9,48.6c28.9,0,59.8-10.9,77.2-26.3
		c0,0,1.1,26.3,26.7,26.3c18.8,0,33.8-8.7,45.8-17.2L1724.9,422.4z M1660,403.1c-12,12.7-34.9,27-55.6,27
		c-22.5,0-33.8-10.9-33.8-32.7c0-23,12.6-32.2,40-40.8l47.5-12.9c0.8-0.2,1.9-0.4,1.9-0.6V403.1z"/>
	<polygon class="st0" points="823.1,257.4 786.4,269.6 768.6,247.9 823.1,247.9 	"/>
</g>
</svg>
